<?xml version="1.0" encoding="utf-8"?>
<!-- Generator: Adobe Illustrator 18.1.1, SVG Export Plug-In . SVG Version: 6.00 Build 0)  -->
<svg version="1.1" id="Layer_1" xmlns="http://www.w3.org/2000/svg" xmlns:xlink="http://www.w3.org/1999/xlink" x="0px" y="0px"
	 viewBox="0 0 150 150" enable-background="new 0 0 150 150" xml:space="preserve">
<path fill="none" stroke="#000000" stroke-width="4" stroke-miterlimit="10" d="M11,63.2c0,0,0.8,48.5,56.5,48.5
	s59.1,10.4,59.1,10.4"/>
<path fill="none" stroke="#000000" stroke-width="6" stroke-miterlimit="10" d="M116.6,49.7c0,22-23.9,39.8-45.9,39.8
	S30.9,71.6,30.9,49.7S48.7,9.9,70.7,9.9S116.6,27.7,116.6,49.7z"/>
<circle cx="60.1" cy="47.9" r="5.3"/>
<circle cx="84.4" cy="45" r="6"/>
<g>
	<path d="M91.1,70.8c0,0-0.3,0.5-1,1.4c-0.3,0.4-0.7,0.9-1.2,1.5c-0.5,0.6-1,1.2-1.7,1.9c-0.6,0.7-1.3,1.4-2.1,2.1
		c-0.7,0.8-1.6,1.4-2.5,2.2c-0.9,0.7-1.8,1.5-2.9,2.1c-1,0.7-2,1.4-3.1,2L75,84.8c-0.6,0.3-1.1,0.6-1.7,0.9
		c-1.1,0.6-2.2,1.1-3.4,1.4c-1.1,0.4-2.3,0.6-3.3,0.8c-0.5,0.1-1.1,0.1-1.6,0.2c-0.5,0-1,0-1.5,0c-1,0-1.8,0-2.6-0.1
		c-0.8-0.1-1.4-0.2-2-0.4c-1.1-0.2-1.7-0.4-1.7-0.4v-0.4c0,0,0.6-0.3,1.6-0.6c0.5-0.2,1.1-0.4,1.8-0.5c0.7-0.2,1.5-0.5,2.3-0.8
		c0.4-0.1,0.9-0.2,1.3-0.4c0.4-0.2,0.9-0.3,1.4-0.5c0.9-0.3,1.9-0.6,2.9-0.9c1-0.3,2.1-0.6,3.2-0.9c0.5-0.2,1.1-0.3,1.6-0.5
		c0.5-0.2,1.1-0.4,1.6-0.7c1.1-0.4,2.1-1,3.1-1.5c1-0.5,2-1.1,3-1.7c0.9-0.6,1.8-1.2,2.7-1.7c0.8-0.6,1.6-1.1,2.3-1.7
		c1.4-1.1,2.5-2.1,3.3-2.8c0.8-0.7,1.2-1.1,1.2-1.1L91.1,70.8z"/>
</g>
<line fill="none" stroke="#000000" stroke-width="6" stroke-miterlimit="10" x1="70.7" y1="149.9" x2="70.7" y2="90.1"/>
<path fill="none" stroke="#000000" stroke-miterlimit="10" d="M125,101.8"/>
<path fill="none" stroke="#000000" stroke-miterlimit="10" d="M67.5,111.7"/>
</svg>
